<?xml version="1.0" encoding="utf-8"?>
<!-- Generator: Adobe Illustrator 21.0.2, SVG Export Plug-In . SVG Version: 6.00 Build 0)  -->
<svg version="1.1" id="Layer_1" xmlns="http://www.w3.org/2000/svg" xmlns:xlink="http://www.w3.org/1999/xlink" x="0px" y="0px"
	 viewBox="0 0 33.4 32.4" style="enable-background:new 0 0 33.4 32.4;" xml:space="preserve">
<style type="text/css">
	.st0{fill:#223042;}
</style>
<title>Icons / Picture / Selected</title>
<desc>Created with Sketch.</desc>
<g id="Icons-_x2F_-Picture-_x2F_-Default">
	<g id="Group" transform="translate(0.500000, 5.479773)">
		<g id="Rectangle-path">
			<path class="st0" d="M24.7,22.2H7c-1.4,0-2.5-1.1-2.5-2.5V2c0-1.4,1.1-2.5,2.5-2.5h17.7c1.4,0,2.5,1.1,2.5,2.5v17.7
				C27.2,21.1,26.1,22.2,24.7,22.2z M7,0.5C6.2,0.5,5.5,1.2,5.5,2v17.7c0,0.8,0.7,1.5,1.5,1.5h17.7c0.8,0,1.5-0.7,1.5-1.5V2
				c0-0.8-0.7-1.5-1.5-1.5H7z"/>
		</g>
		<g id="Shape">
			<path class="st0" d="M7.3,21.8c-0.1,0-0.3,0-0.4-0.1c-0.2-0.2-0.2-0.5,0-0.7L19.9,8c0.2-0.2,0.5-0.2,0.7,0l5.9,5.9
				c0.2,0.2,0.2,0.5,0,0.7s-0.5,0.2-0.7,0l-5.5-5.5L7.7,21.6C7.6,21.7,7.5,21.8,7.3,21.8z"/>
		</g>
		<g id="Oval">
			<path class="st0" d="M11.4,8.9c-1.2,0-2.3-1-2.3-2.3c0-1.2,1-2.3,2.3-2.3c1.2,0,2.3,1,2.3,2.3C13.7,7.9,12.7,8.9,11.4,8.9z
				 M11.4,5.4c-0.7,0-1.3,0.6-1.3,1.3c0,0.7,0.6,1.3,1.3,1.3c0.7,0,1.3-0.6,1.3-1.3C12.7,5.9,12.1,5.4,11.4,5.4z"/>
		</g>
	</g>
</g>
</svg>
