<?xml version="1.0" encoding="utf-8"?>
<!-- Generator: Adobe Illustrator 21.0.2, SVG Export Plug-In . SVG Version: 6.00 Build 0)  -->
<svg version="1.1" id="Layer_1" xmlns="http://www.w3.org/2000/svg" xmlns:xlink="http://www.w3.org/1999/xlink" x="0px" y="0px"
	 viewBox="0 0 33.4 32.4" style="enable-background:new 0 0 33.4 32.4;" xml:space="preserve">
<style type="text/css">
	.st0{fill:#FFFFFF;}
</style>
<title>Icons / Picture / Selected</title>
<desc>Created with Sketch.</desc>
<g>
	<path class="st0" d="M9.9,12.3c0,1.3,1,2.3,2.3,2.3s2.3-1,2.3-2.3s-1-2.3-2.3-2.3C11,10,9.9,11.1,9.9,12.3z M13.6,12.3
		c0,0.7-0.6,1.3-1.3,1.3S11,13,11,12.3s0.6-1.3,1.3-1.3S13.6,11.6,13.6,12.3z"/>
	<path class="st0" d="M27.3,13.5c-0.3,0-0.5,0.2-0.5,0.5v4.9l-5.2-5.2c-0.2-0.2-0.5-0.2-0.7,0L7.8,26.9c-1-0.1-1.7-0.9-1.7-1.9V8.1
		c0-1,0.9-1.9,1.9-1.9h13.7c0.3,0,0.5-0.2,0.5-0.5S22,5.2,21.7,5.2H8c-1.6,0-2.9,1.3-2.9,2.9V25c0,1.6,1.3,2.9,2.9,2.9h16.9
		c1.6,0,2.9-1.3,2.9-2.9V14C27.8,13.8,27.6,13.5,27.3,13.5z M26.8,25c0,1.1-0.9,1.9-1.9,1.9H9.2l12-12l5.5,5.5L26.8,25L26.8,25z"/>
	<path class="st0" d="M33,3.1l-2.3-2.3c-0.1-0.1-0.2-0.1-0.4-0.1S30.1,0.8,30,0.8l-5.9,5.9C24,6.8,24,6.9,24,7.1v2.3
		c0,0.3,0.2,0.5,0.5,0.5h2.3c0.1,0,0.3-0.1,0.4-0.1l5.8-6C33.2,3.6,33.2,3.3,33,3.1z M26.5,8.8H25V7.3l5.4-5.4L32,3.5L26.5,8.8z"/>
</g>
</svg>
